# xmcd
#
# Track frame offsets: 
#        150
#        19755
#        37347
#        55068
#        76272
#        89991
#        105373
#        127177
#        147580
#        174999
#        193227
#        209211
#        223723
#        238884
#        257402
#        279361
#        296534
#        314653
#
# Disc length: 4455 seconds
#
# Revision: 0
# Processed by: cddbd v1.5.1PL0 Copyright (c) Steve Scherf et al.
# Submitted via: ExactAudioCopy v0.95a3
#
DISCID=23116512
DTITLE=Кристина Орбакайте - Золотая Коллекция России
DYEAR=2000
DGENRE=Pop
TTITLE0=Все, Что Им Нужно, Это Любовь
TTITLE1=Без Тебя
TTITLE2=Музыкант
TTITLE3=Бесприютная Душа
TTITLE4=Я Тебя Подожду
TTITLE5=Смородина
TTITLE6=Пароходик
TTITLE7=Если Бы Знать
TTITLE8=Вербочки
TTITLE9=Позови Меня
TTITLE10=Где Я Пела
TTITLE11=Зеркальце
TTITLE12=Поговорим
TTITLE13=Танго Втроем
TTITLE14=Ну Почему?
TTITLE15=Кошка
TTITLE16=Сердце
TTITLE17=Ты
EXTD=
EXTT0=
EXTT1=
EXTT2=
EXTT3=
EXTT4=
EXTT5=
EXTT6=
EXTT7=
EXTT8=
EXTT9=
EXTT10=
EXTT11=
EXTT12=
EXTT13=
EXTT14=
EXTT15=
EXTT16=
EXTT17=
PLAYORDER=
